<?xml version="1.0" encoding="UTF-8"?>
<svg width="73px" height="51px" viewBox="0 0 73 51" version="1.1" xmlns="http://www.w3.org/2000/svg" xmlns:xlink="http://www.w3.org/1999/xlink">
    <!-- Generator: Sketch 46.2 (44496) - http://www.bohemiancoding.com/sketch -->
    <title>icon-aircon</title>
    <desc>Created with Sketch.</desc>
    <defs></defs>
    <g id="Symbols" stroke="none" stroke-width="1" fill="none" fill-rule="evenodd">
        <g id="icon-aircon" fill-rule="nonzero" fill="#FFFFFF">
            <g transform="translate(0.726150, 0.160156)" id="Shape">
                <path d="M68.0152278,0.0769110338 L3.57970394,0.0769110338 C1.55115765,0.0769110338 0,1.62806869 0,3.65661497 L0,27.5216396 C0,29.5501859 1.55115765,31.1013436 3.57970394,31.1013436 L68.0152278,31.1013436 C70.0437741,31.1013436 71.5949318,29.5501859 71.5949318,27.5216396 L71.5949318,3.65661497 C71.5950739,1.62806869 70.0437741,0.0769110338 68.0152278,0.0769110338 Z M69.2085572,27.5216396 C69.2085572,28.2375804 68.7313108,28.7148269 68.01537,28.7148269 L3.57970394,28.7148269 C2.86376315,28.7148269 2.38651668,28.2375804 2.38651668,27.5216396 L2.38651668,3.65661497 C2.38651668,2.94067418 2.98318139,2.46342771 3.57970394,2.46342771 L68.0152278,2.46342771 C68.7311686,2.46342771 69.2084151,2.94067418 69.2084151,3.65661497 L69.2084151,27.5216396 L69.2085572,27.5216396 Z"></path>
                <path d="M31.0244325,10.816165 L40.5704992,10.816165 C41.28644,10.816165 41.7636865,10.3389185 41.7636865,9.62297776 C41.7636865,8.90703697 41.28644,8.4297905 40.5704992,8.4297905 L31.0244325,8.4297905 C30.3084917,8.4297905 29.8312453,8.90703697 29.8312453,9.62297776 C29.8312453,10.3389185 30.3084917,10.816165 31.0244325,10.816165 Z"></path>
                <path d="M65.6287111,23.9419357 L5.96622062,23.9419357 C5.25027983,23.9419357 4.77303336,24.4191821 4.77303336,25.1351229 C4.77303336,25.8510637 5.25027983,26.3283102 5.96622062,26.3283102 L65.6287111,26.3283102 C66.3446519,26.3283102 66.8218984,25.8510637 66.8218984,25.1351229 C66.8218984,24.4191821 66.3446519,23.9419357 65.6287111,23.9419357 Z"></path>
                <path d="M65.6287111,19.1689023 L5.96622062,19.1689023 C5.25027983,19.1689023 4.77303336,19.6461488 4.77303336,20.3620896 C4.77303336,21.0780304 5.25027983,21.5552768 5.96622062,21.5552768 L65.6287111,21.5552768 C66.3446519,21.5552768 66.8218984,21.0780304 66.8218984,20.3620896 C66.8218984,19.6461488 66.3446519,19.1689023 65.6287111,19.1689023 Z"></path>
                <path d="M36.3941306,39.5734991 C35.2009433,38.9768344 34.6042786,38.2608936 34.6042786,37.6642289 C34.6042786,37.0675642 35.3202194,36.3516234 36.2748545,35.6356826 C36.8715192,35.3969883 36.9907953,34.6810475 36.752101,34.0845249 C36.5134067,33.4878602 35.7974659,33.2493081 35.2009433,33.6072785 C33.2916731,34.6811897 32.2177619,36.1130712 32.2177619,37.664371 C32.2177619,39.2155287 33.2916731,40.6475524 35.2009433,41.8407397 C36.3941306,42.4374044 36.9907953,43.1533452 36.9907953,43.7500099 C36.9907953,44.3466746 36.2748545,45.0626154 35.2009433,45.659138 C34.6042786,45.8978323 34.3657265,46.6137731 34.7236969,47.2102956 C34.9623912,47.568266 35.3203616,47.8069603 35.797608,47.8069603 C36.0363024,47.8069603 36.1555784,47.8069603 36.3942728,47.6876842 C38.303543,46.6137731 39.3774541,45.1818915 39.3774541,43.6305917 C39.3774541,42.0792919 38.3034008,40.5281342 36.3941306,39.5734991 Z"></path>
                <path d="M23.2683599,41.9600158 C22.0751727,41.3633511 21.478508,40.6474103 21.478508,40.0507456 C21.478508,39.4540809 22.1944487,38.7381401 23.1490839,38.0221993 C23.7457486,37.783505 23.9843007,37.0675642 23.6263303,36.4710416 C23.387636,35.8743769 22.6716952,35.6358248 22.0751727,35.9937952 C20.1659025,37.0677063 19.0919913,38.4995879 19.0919913,40.0508877 C19.0919913,41.6020454 20.1659025,43.0340691 22.0751727,44.2272564 C23.2683599,44.8239211 23.8650246,45.5398619 23.8650246,46.1365266 C23.8650246,46.7331913 23.1490839,47.4491321 22.0751727,48.0457968 C21.478508,48.2844911 21.2399558,49.0004319 21.5979262,49.5969545 C21.8366205,49.9549248 22.1945909,50.1936192 22.6718374,50.1936192 C22.9105317,50.1936192 23.0298078,50.1936192 23.2685021,50.0743431 C25.1777723,49.0004319 26.2516835,47.5685503 26.2516835,46.0172505 C26.2516835,44.4659507 25.1776301,42.9146509 23.2683599,41.9600158 Z"></path>
                <path d="M49.5199013,41.9600158 C48.326714,41.3633511 47.7300493,40.6474103 47.7300493,40.0507456 C47.7300493,39.4540809 48.4459901,38.7381401 49.4006252,38.0221993 C49.9972899,37.783505 50.116566,37.0675642 49.8778716,36.4710416 C49.6391773,35.8743769 48.9232365,35.6358248 48.326714,35.9937952 C46.4174438,37.0677063 45.3435326,38.4995879 45.3435326,40.0508877 C45.3435326,41.6020454 46.4174438,43.0340691 48.326714,44.2272564 C49.5199013,44.8239211 50.116566,45.5398619 50.116566,46.1365266 C50.116566,46.7331913 49.4006252,47.4491321 48.326714,48.0457968 C47.7300493,48.2844911 47.4914971,49.0004319 47.8494675,49.5969545 C48.0881618,49.9549248 48.4461322,50.1936192 48.9233787,50.1936192 C49.162073,50.1936192 49.2813491,50.1936192 49.5200434,50.0743431 C51.4293136,49.0004319 52.5032248,47.5685503 52.5032248,46.0172505 C52.5032248,44.4659507 51.4290293,42.9146509 49.5199013,41.9600158 Z"></path>
            </g>
        </g>
    </g>
</svg>