<?xml version="1.0" encoding="UTF-8"?>
<svg width="28px" height="28px" viewBox="0 0 28 28" version="1.1" xmlns="http://www.w3.org/2000/svg" xmlns:xlink="http://www.w3.org/1999/xlink">
    <!-- Generator: Sketch 46.2 (44496) - http://www.bohemiancoding.com/sketch -->
    <title>icon-controls</title>
    <desc>Created with Sketch.</desc>
    <defs></defs>
    <g id="Page-1" stroke="none" stroke-width="1" fill="none" fill-rule="evenodd">
        <g id="PhongHop-Inside" transform="translate(-17.000000, -413.000000)" fill-rule="nonzero" fill="#BFBFBF">
            <g id="icon-controls" transform="translate(17.000000, 412.870688)">
                <path d="M4.82638853,8.81630174 C2.60340416,8.81630174 0.796107423,7.00882677 0.796107423,4.78602064 C0.796107423,2.56321451 2.60340416,0.755739539 4.82638853,0.755739539 C6.58336445,0.755739539 8.10026732,1.89267083 8.64172154,3.49786389 L25.8493419,3.49786389 C26.5610981,3.49786389 27.1374987,4.07426443 27.1374987,4.78602064 C27.1374987,5.49777685 26.5610981,6.07417739 25.8493419,6.07417739 L8.64172154,6.07417739 C8.10026732,7.67937046 6.58336445,8.81630174 4.82638853,8.81630174 Z M7.16633567,4.44756061 C6.99963377,3.29089539 6.00322485,2.41801159 4.82638853,2.41801159 C3.52148836,2.41801159 2.45837947,3.48122532 2.45837947,4.78602064 C2.45837947,6.09081597 3.52148836,7.1540297 4.82638853,7.1540297 C6.00322485,7.1540297 6.99963377,6.28114589 7.16633567,5.12448067 L7.21511549,4.78602064 L7.16633567,4.44756061 Z M4.82638853,3.33205304 C4.02540614,3.33205304 3.37242092,3.98503825 3.37242092,4.78602064 C3.37242092,5.58700303 4.02540614,6.23998825 4.82638853,6.23998825 C5.62737092,6.23998825 6.28035613,5.58700303 6.28035613,4.78602064 C6.28035613,3.98503825 5.62737092,3.33205304 4.82638853,3.33205304 Z M4.82638853,1.66978099 C6.54541842,1.66978099 7.94262818,3.06699075 7.94262818,4.78602064 C7.94262818,6.50505053 6.54541842,7.90226029 4.82638853,7.90226029 C3.10735863,7.90226029 1.71014887,6.50505053 1.71014887,4.78602064 C1.71014887,3.06699075 3.10735863,1.66978099 4.82638853,1.66978099 Z" id="Shape"></path>
                <path d="M23.1072175,19.95061 C25.3298843,19.95061 27.1374987,21.7582244 27.1374987,23.9808911 C27.1374987,26.2035578 25.3298843,28.0111722 23.1072175,28.0111722 C21.3502416,28.0111722 19.8333388,26.8742409 19.2918845,25.2690479 L2.08426417,25.2690479 C1.37293555,25.2690479 0.796107423,24.6926181 0.796107423,23.9808911 C0.796107423,23.2691641 1.37293555,22.6927344 2.08426417,22.6927344 L19.2918845,22.6927344 C19.8333388,21.0875413 21.3502416,19.95061 23.1072175,19.95061 Z M20.7672704,24.3193511 C20.9339723,25.4760164 21.9303812,26.3489002 23.1072175,26.3489002 C24.4118368,26.3489002 25.4752266,25.2855103 25.4752266,23.9808911 C25.4752266,22.6762719 24.4118368,21.6128821 23.1072175,21.6128821 C21.9303812,21.6128821 20.9339723,22.4857659 20.7672704,23.6424311 L20.7184906,23.9808911 L20.7672704,24.3193511 Z M23.1072175,25.4348587 C23.9081999,25.4348587 24.5611852,24.7818735 24.5611852,23.9808911 C24.5611852,23.1799087 23.9081999,22.5269235 23.1072175,22.5269235 C22.3062352,22.5269235 21.6532499,23.1799087 21.6532499,23.9808911 C21.6532499,24.7818735 22.3062352,25.4348587 23.1072175,25.4348587 Z M23.1072175,27.0971308 C21.3881877,27.0971308 19.9909779,25.699921 19.9909779,23.9808911 C19.9909779,22.2618612 21.3881877,20.8646515 23.1072175,20.8646515 C24.8262474,20.8646515 26.2234572,22.2618612 26.2234572,23.9808911 C26.2234572,25.699921 24.8262474,27.0971308 23.1072175,27.0971308 Z" id="Shape"></path>
                <path d="M25.8493419,13.0952991 C26.5610981,13.0952991 27.1374987,13.6716997 27.1374987,14.3834559 C27.1374987,15.0952121 26.5610981,15.6716126 25.8493419,15.6716126 L17.9440331,15.6716126 C17.3707033,17.2829155 15.833826,18.413737 14.0614063,18.413737 C12.2889444,18.413737 10.7517475,17.2828763 10.1783421,15.6716126 L2.08426417,15.6716126 C1.37293555,15.6716126 0.796107423,15.0951829 0.796107423,14.3834559 C0.796107423,13.6717289 1.37293555,13.0952991 2.08426417,13.0952991 L10.1135543,13.0952991 C10.6286677,11.3903815 12.2135156,10.1639682 14.0614063,10.1639682 C15.9094615,10.1639682 17.4942441,11.3901901 18.0092951,13.0952991 L25.8493419,13.0952991 Z M16.5079734,14.0172621 C16.3717619,12.7782877 15.3171418,11.8262402 14.0614063,11.8262402 C12.8058621,11.8262402 11.751059,12.7785561 11.6148365,14.017287 L11.577858,14.353548 L11.6368933,14.7014162 C11.8362891,15.8763651 12.859647,16.7514649 14.0614063,16.7514649 C15.2630402,16.7514649 16.2860448,15.8764933 16.4854623,14.7014162 L16.5447687,14.3519505 L16.5079734,14.0172621 Z M14.0614063,15.8374235 C14.9144891,15.8374235 15.6099772,15.1419353 15.6099772,14.2888526 C15.6099772,13.4357698 14.9144891,12.7402817 14.0614063,12.7402817 C13.2083236,12.7402817 12.5128354,13.4357698 12.5128354,14.2888526 C12.5128354,15.1419353 13.2083236,15.8374235 14.0614063,15.8374235 Z M14.0614063,17.4996955 C12.2902761,17.4996955 10.8505634,16.0599828 10.8505634,14.2888526 C10.8505634,12.5177223 12.2902761,11.0780096 14.0614063,11.0780096 C15.8325366,11.0780096 17.2722493,12.5177223 17.2722493,14.2888526 C17.2722493,16.0599828 15.8325366,17.4996955 14.0614063,17.4996955 Z" id="Shape"></path>
            </g>
        </g>
    </g>
</svg>