<?xml version="1.0" encoding="UTF-8"?>
<svg width="92px" height="45px" viewBox="0 0 92 45" version="1.1" xmlns="http://www.w3.org/2000/svg" xmlns:xlink="http://www.w3.org/1999/xlink">
    <!-- Generator: Sketch 46.2 (44496) - http://www.bohemiancoding.com/sketch -->
    <title>icon-projector</title>
    <desc>Created with Sketch.</desc>
    <defs></defs>
    <g id="Symbols" stroke="none" stroke-width="1" fill="none" fill-rule="evenodd">
        <g id="icon-projector" fill-rule="nonzero" fill="#FFFFFF">
            <g id="Shape">
                <path d="M62.9032604,7.7667148 C55.1630315,7.7667148 48.9709573,13.9587891 48.9709573,21.699018 C48.9709573,29.4392469 55.1630315,35.6313212 62.9032604,35.6313212 C70.6434894,35.6313212 76.8355636,29.4392469 76.8355636,21.699018 C76.8355636,13.9587891 70.6434894,7.7667148 62.9032604,7.7667148 Z M62.9032604,32.5351933 C56.8659291,32.5351933 52.0670851,27.7363494 52.0670851,21.699018 C52.0670851,15.6616866 56.8659291,10.8628426 62.9032604,10.8628426 C68.9405918,10.8628426 73.7394358,15.6616866 73.7394358,21.699018 C73.7396172,27.7363494 68.9405918,32.5351933 62.9032604,32.5351933 Z"></path>
                <path d="M13.3663034,17.0549169 L31.9427076,17.0549169 C32.8715278,17.0549169 33.4906808,16.4357639 33.4906808,15.5069437 C33.4906808,14.5781235 32.8715278,13.9589705 31.9427076,13.9589705 L13.3663034,13.9589705 C12.4374832,13.9589705 11.8183302,14.5781235 11.8183302,15.5069437 C11.8181487,16.4357639 12.4374832,17.0549169 13.3663034,17.0549169 Z"></path>
                <path d="M13.3663034,23.2469912 L31.9427076,23.2469912 C32.8715278,23.2469912 33.4906808,22.6278382 33.4906808,21.699018 C33.4906808,20.7701978 32.8715278,20.1510448 31.9427076,20.1510448 L13.3663034,20.1510448 C12.4374832,20.1510448 11.8183302,20.7701978 11.8183302,21.699018 C11.8183302,22.6278382 12.4374832,23.2469912 13.3663034,23.2469912 Z"></path>
                <path d="M13.3663034,29.4392469 L31.9427076,29.4392469 C32.8715278,29.4392469 33.4906808,28.8200939 33.4906808,27.8912737 C33.4906808,26.9624535 32.8715278,26.3433005 31.9427076,26.3433005 L13.3663034,26.3433005 C12.4374832,26.3433005 11.8183302,26.9624535 11.8183302,27.8912737 C11.8181487,28.8199125 12.4374832,29.4392469 13.3663034,29.4392469 Z"></path>
                <path d="M85.8140986,7.14756179 L77.7836133,5.97946153 C73.8941787,2.29465759 68.6508797,0.0266672991 62.9032604,0.0266672991 C58.8511009,0.0266672991 55.0501944,1.15467591 51.7969653,3.11082207 C42.6457279,2.82909203 33.3538976,3.2964047 24.5121459,4.51602546 L5.93574167,7.14756179 C2.22046082,7.6119719 -0.411256918,10.8628426 0.053153188,14.5781235 L2.22046082,34.5477581 C2.53012803,37.0245515 4.54251135,38.727449 6.86456189,38.727449 L9.26407457,38.727449 L10.5798427,41.3591668 C11.6634058,43.5264744 13.9854564,44.9197047 16.4624312,44.9197047 C18.9392247,44.9197047 21.2612752,43.5264744 22.3450197,41.3591668 L23.6607879,38.727449 L49.5362314,38.727449 C53.2252078,41.6332776 57.871123,43.3715501 62.9034419,43.3715501 C65.3548379,43.3715501 67.7142589,42.9582977 69.9165787,42.1992774 C71.1267661,43.8789544 73.1485828,44.9197047 75.2877718,44.9197047 C77.7645653,44.9197047 80.0866158,43.5264744 81.1703603,41.5140911 L82.5635906,38.7276304 L84.8856412,38.7276304 C87.2076917,38.7276304 89.220075,37.0247329 89.5297422,34.7026824 L91.6970499,14.7330478 C92.1610972,11.0175855 89.5295608,7.6119719 85.8140986,7.14756179 Z M5.31640726,34.2380909 L3.14928103,14.2684563 C2.83961383,12.256073 4.23284415,10.3984325 6.40015178,10.2435082 L24.976556,7.61179049 C31.7879647,6.68297028 38.7541163,6.21856017 45.7202679,6.21856017 C46.4943452,6.21856017 47.1134982,6.21856017 47.7326512,6.21856017 C43.5529603,10.2435082 41.2309098,15.8164295 41.2309098,21.6988366 C41.2309098,21.8693622 41.2332681,22.0395249 41.2374405,22.2096877 C41.2396174,22.300937 41.2434271,22.3918235 41.2466924,22.4828915 C41.2494136,22.5536414 41.2514091,22.6245728 41.2548559,22.6953228 C41.2610239,22.8288407 41.2688245,22.9618144 41.2775322,23.0947881 C41.2788021,23.1125663 41.2797091,23.1303445 41.280979,23.1481227 C41.5971769,27.8778493 43.4481052,32.2041197 46.3374254,35.6311398 L22.6545055,35.6311398 L10.2701755,35.6311398 L6.86456189,35.6311398 C6.09048457,35.6313212 5.47133157,35.0121682 5.31640726,34.2380909 Z M19.5583777,39.965755 C18.9392247,41.0493182 17.8554801,41.8233955 16.4622498,41.8233955 C15.0690195,41.8233955 13.9854564,41.2042425 13.366122,39.965755 L12.746969,38.7272676 L20.1775307,38.7272676 L19.5583777,39.965755 Z M44.8054163,25.8834256 C44.8052349,25.8823372 44.8048721,25.8814301 44.8046907,25.8803416 C44.774758,25.7519032 44.7470022,25.6225577 44.7197907,25.4932123 C44.7134413,25.4632796 44.7069106,25.4335283 44.700924,25.4034142 C44.6775221,25.2891258 44.6557529,25.1742932 44.6345279,25.0592791 C44.6260016,25.0130195 44.6174753,24.9669413 44.6093119,24.9205003 C44.590808,24.8156452 44.5733927,24.7104273 44.5567029,24.6050279 C44.5476324,24.5473395 44.5385619,24.4894697 44.5300356,24.4315998 C44.5155228,24.3341825 44.5017356,24.2365838 44.4886741,24.1388037 C44.479785,24.0713191 44.4714401,24.0036531 44.4630953,23.9358057 C44.4520292,23.845282 44.441326,23.7545769 44.4317113,23.663509 C44.4235478,23.5864097 44.4162914,23.5089475 44.409035,23.4316668 C44.4012344,23.3482181 44.3932523,23.2649508 44.3865401,23.1813207 C44.3794652,23.0935182 44.3738414,23.0055342 44.3682177,22.9175503 C44.3633196,22.8424465 44.3578773,22.7675241 44.3538863,22.6922388 C44.348444,22.5884722 44.3446344,22.4843427 44.3408248,22.3802133 C44.3386479,22.3194409 44.3353825,22.2588499 44.3337498,22.1980774 C44.3293959,22.0320871 44.3268562,21.8659154 44.3268562,21.699018 C44.3268562,21.5165193 44.330303,21.3345649 44.3355639,21.1527919 C44.3370152,21.1003643 44.3395549,21.0481182 44.3415504,20.9956907 C44.3466299,20.8619913 44.3527979,20.7284734 44.3607799,20.5953183 C44.3638639,20.5419837 44.3673107,20.4886492 44.3709389,20.4353146 C44.3809164,20.2907306 44.3923453,20.1465095 44.4055882,20.0026512 C44.4088536,19.9670948 44.4117562,19.9315384 44.415203,19.8961634 C44.4520292,19.5204629 44.4999215,19.1469393 44.5592427,18.7761369 C44.5612382,18.7641638 44.5632337,18.7521907 44.5652292,18.7400363 C44.5935292,18.5658825 44.6241875,18.3922729 44.6573856,18.2192076 C44.6610138,18.2001595 44.664642,18.1812928 44.6684516,18.1622448 C44.7772977,17.6040456 44.9113599,17.05274 45.0702752,16.5095979 C45.0744476,16.4950851 45.0789829,16.4807537 45.0831553,16.4664222 C45.1299591,16.3078697 45.1793027,16.1500429 45.230279,15.9927602 C45.2406194,15.9611948 45.2507783,15.9294481 45.2613001,15.8978827 C45.3099181,15.750759 45.3607129,15.604361 45.412959,15.4585072 C45.4232994,15.429663 45.4330956,15.4006373 45.4436174,15.3719745 C45.5027571,15.2097938 45.5642552,15.0485201 45.6277487,14.8881535 C45.6560487,14.8168593 45.6858,14.7462907 45.7151884,14.6753594 C45.7480237,14.5953575 45.7810403,14.5153556 45.814964,14.4358979 C45.8592281,14.3324941 45.9045807,14.2294531 45.9506589,14.1269563 C45.9662602,14.0919442 45.9822242,14.0572948 45.9980069,14.0224641 C48.9334053,7.60779947 55.4199084,3.12261373 62.9034419,3.12261373 C69.3757949,3.12261373 75.1014636,6.47797675 78.4299779,11.5344232 C80.2965074,14.4173941 81.3849686,17.7417359 81.4738596,21.2338822 C81.4776692,21.3884437 81.4798461,21.5435495 81.4798461,21.699018 C81.4798461,21.8622872 81.4774878,22.0255563 81.4733153,22.1884627 C81.470957,22.2755396 81.4667846,22.3620723 81.4633378,22.4487863 C81.4604352,22.5215318 81.4582583,22.5942773 81.4546301,22.6670228 C81.4477365,22.798001 81.4392102,22.9286163 81.4295955,23.0588688 C81.4277814,23.0831778 81.4265115,23.1074868 81.4246974,23.1316143 C80.6870836,32.6859452 72.6386387,40.2752408 62.9034419,40.2752408 C54.1239139,40.2754222 46.7162099,34.1029403 44.8054163,25.8834256 Z M78.3837183,39.965755 C77.7645653,41.0493182 76.6808207,41.8233955 75.2875904,41.8233955 C74.3587702,41.8233955 73.5846929,41.5137283 72.9655399,40.8945753 C73.1320745,40.7995163 73.3029629,40.6995593 73.4756654,40.5977882 C73.9977639,40.3037222 74.5075266,39.9898826 75.0020508,39.6549994 C75.4700891,39.3524072 75.9334107,39.0402002 76.3713349,38.727449 L79.0030527,38.727449 L78.3837183,39.965755 Z M88.6007406,14.2684563 L86.433433,34.2380909 C86.2786901,35.0121682 85.6593557,35.6313212 84.8854598,35.6313212 L79.4694583,35.6313212 C82.6515746,31.857082 84.5757926,26.9922047 84.5757926,21.699018 C84.5757926,17.1748291 83.1698635,12.9637541 80.7747047,9.47868284 L85.3496885,10.0887653 C87.3622532,10.3984325 88.7554835,12.256073 88.6007406,14.2684563 Z"></path>
            </g>
        </g>
    </g>
</svg>